<svg width="80" height="88" viewBox="0 0 60 66" fill="none" xmlns="http://www.w3.org/2000/svg">
<g filter="url(#filter0_bd_1_9)">
<path d="M19.3934 11.6066C25.2513 5.74874 34.7487 5.74874 40.6066 11.6066V11.6066C46.4645 17.4645 46.4645 26.9619 40.6066 32.8198L31.9285 41.4979C30.8634 42.563 29.1366 42.563 28.0715 41.4979L19.3934 32.8198C13.5355 26.9619 13.5355 17.4645 19.3934 11.6066V11.6066Z" fill="#AAAAAA"/>
<path d="M39.8995 32.1127L31.2214 40.7908C30.5468 41.4654 29.4532 41.4654 28.7786 40.7908L20.1005 32.1127C14.6332 26.6454 14.6332 17.781 20.1005 12.3137C25.5678 6.84637 34.4322 6.84637 39.8995 12.3137C45.3668 17.781 45.3668 26.6454 39.8995 32.1127Z" stroke="white" stroke-opacity="0.25" stroke-width="2"/>
</g>
<g filter="url(#filter1_b_1_9)">
<path d="M25.4038 17.5962C27.9422 15.0578 32.0578 15.0578 34.5962 17.5962V17.5962C37.1346 20.1346 37.1346 24.2502 34.5962 26.7886L30.8357 30.5491C30.3741 31.0106 29.6259 31.0106 29.1643 30.5491L25.4038 26.7886C22.8654 24.2502 22.8654 20.1346 25.4038 17.5962V17.5962Z" fill="white" fill-opacity="0.25"/>
</g>
<defs>
<filter id="filter0_bd_1_9" x="0" y="0.213196" width="60" height="65.0835" filterUnits="userSpaceOnUse" color-interpolation-filters="sRGB">
<feFlood flood-opacity="0" result="BackgroundImageFix"/>
<feGaussianBlur in="BackgroundImageFix" stdDeviation="3"/>
<feComposite in2="SourceAlpha" operator="in" result="effect1_backgroundBlur_1_9"/>
<feColorMatrix in="SourceAlpha" type="matrix" values="0 0 0 0 0 0 0 0 0 0 0 0 0 0 0 0 0 0 127 0" result="hardAlpha"/>
<feOffset dy="8"/>
<feGaussianBlur stdDeviation="7.5"/>
<feComposite in2="hardAlpha" operator="out"/>
<feColorMatrix type="matrix" values="0 0 0 0 0 0 0 0 0 0 0 0 0 0 0 0 0 0 1 0"/>
<feBlend mode="normal" in2="effect1_backgroundBlur_1_9" result="effect2_dropShadow_1_9"/>
<feBlend mode="normal" in="SourceGraphic" in2="effect2_dropShadow_1_9" result="shape"/>
</filter>
<filter id="filter1_b_1_9" x="17.5" y="9.69238" width="25" height="27.2029" filterUnits="userSpaceOnUse" color-interpolation-filters="sRGB">
<feFlood flood-opacity="0" result="BackgroundImageFix"/>
<feGaussianBlur in="BackgroundImageFix" stdDeviation="3"/>
<feComposite in2="SourceAlpha" operator="in" result="effect1_backgroundBlur_1_9"/>
<feBlend mode="normal" in="SourceGraphic" in2="effect1_backgroundBlur_1_9" result="shape"/>
</filter>
</defs>
</svg>